<svg xmlns="http://www.w3.org/2000/svg" viewBox="0 0 1200 820">
  <defs>
    <linearGradient id="bg" x1="0" y1="0" x2="1" y2="1">
      <stop offset="0" stop-color="#0a0d12"/>
      <stop offset=".5" stop-color="#1a2027"/>
      <stop offset="1" stop-color="#050608"/>
    </linearGradient>
    <radialGradient id="light" cx=".5" cy=".38" r=".5">
      <stop offset="0" stop-color="#a9e7ff" stop-opacity=".7"/>
      <stop offset=".5" stop-color="#a9e7ff" stop-opacity=".09"/>
      <stop offset="1" stop-color="#a9e7ff" stop-opacity="0"/>
    </radialGradient>
  </defs>
  <rect width="1200" height="820" fill="url(#bg)"/>
  <rect width="1200" height="820" fill="url(#light)"/>
  <g transform="translate(230 145)">
    <rect x="0" y="0" width="345" height="530" fill="#e7eaed"/>
    <circle cx="172" cy="180" r="95" fill="#10151b"/>
    <path d="M172 95 L247 224 H97Z" fill="#cfb27b"/>
    <rect x="64" y="342" width="218" height="18" fill="#10151b"/>
    <rect x="64" y="390" width="168" height="10" fill="#10151b" opacity=".45"/>
    <rect x="64" y="420" width="206" height="10" fill="#10151b" opacity=".28"/>
  </g>
  <g transform="translate(640 190)">
    <text x="0" y="70" fill="#f5f7fa" font-family="Arial" font-size="72" font-weight="700">BRAND</text>
    <text x="2" y="120" fill="#cfb27b" font-family="Arial" font-size="24">Identity / Guideline / Social</text>
    <rect x="0" y="182" width="360" height="1" fill="#f5f7fa" opacity=".26"/>
    <circle cx="44" cy="268" r="36" fill="#f5f7fa"/>
    <circle cx="136" cy="268" r="36" fill="#cfb27b"/>
    <circle cx="228" cy="268" r="36" fill="#a9e7ff"/>
    <rect x="0" y="355" width="360" height="84" fill="#11171e" stroke="#f5f7fa" stroke-opacity=".18"/>
  </g>
</svg>
